<svg xmlns="http://www.w3.org/2000/svg" version="1.1" xmlns:xlink="http://www.w3.org/1999/xlink" viewBox="0 0 200 200"><rect width="200" height="200" fill="url('#gradient')"></rect><defs><linearGradient id="gradient" gradientTransform="rotate(45 0.5 0.5)"><stop offset="0%" stop-color="#ffffff"></stop><stop offset="100%" stop-color="#16c575"></stop></linearGradient></defs><g><g fill="#000000" transform="matrix(2.048,0,0,2.048,7.804749014854423,110.98872969818115)" stroke="#c2d02d" stroke-width="0.2"><path d="M8.87 0L6.36-5.02L4.50-5.02L4.50 0L1.07 0L1.07-14.22L6.67-14.22Q9.20-14.22 10.63-13.10Q12.05-11.97 12.05-9.92L12.05-9.92Q12.05-8.44 11.45-7.46Q10.85-6.48 9.57-5.88L9.57-5.88L12.54-0.15L12.54 0L8.87 0ZM4.50-11.57L4.50-7.67L6.67-7.67Q7.65-7.67 8.14-8.18Q8.63-8.69 8.63-9.61Q8.63-10.53 8.13-11.05Q7.64-11.57 6.67-11.57L6.67-11.57L4.50-11.57ZM23.21 0L19.92 0Q19.75-0.32 19.61-0.95L19.61-0.95Q18.70 0.20 17.07 0.20L17.07 0.20Q15.58 0.20 14.53-0.71Q13.49-1.61 13.49-2.98L13.49-2.98Q13.49-4.70 14.76-5.58Q16.03-6.46 18.45-6.46L18.45-6.46L19.46-6.46L19.46-7.01Q19.46-8.47 18.20-8.47L18.20-8.47Q17.03-8.47 17.03-7.31L17.03-7.31L13.74-7.31Q13.74-8.85 15.04-9.80Q16.35-10.76 18.37-10.76Q20.39-10.76 21.56-9.78Q22.73-8.79 22.76-7.07L22.76-7.07L22.76-2.39Q22.78-0.94 23.21-0.17L23.21-0.17L23.21 0ZM17.86-2.15L17.86-2.15Q18.48-2.15 18.88-2.41Q19.29-2.68 19.46-3.01L19.46-3.01L19.46-4.70L18.51-4.70Q16.79-4.70 16.79-3.15L16.79-3.15Q16.79-2.71 17.09-2.43Q17.39-2.15 17.86-2.15ZM26.99-10.57L28.66-4.61L30.42-10.57L33.95-10.57L29.64 1.77L29.45 2.22Q28.54 4.27 26.21 4.27L26.21 4.27Q25.57 4.27 24.85 4.07L24.85 4.07L24.85 1.72L25.28 1.72Q25.98 1.72 26.34 1.52Q26.71 1.32 26.88 0.80L26.88 0.80L27.15 0.10L23.48-10.57L26.99-10.57ZM43.90 0L40.61 0Q40.43-0.32 40.29-0.95L40.29-0.95Q39.38 0.20 37.75 0.20L37.75 0.20Q36.26 0.20 35.21-0.71Q34.17-1.61 34.17-2.98L34.17-2.98Q34.17-4.70 35.44-5.58Q36.71-6.46 39.13-6.46L39.13-6.46L40.15-6.46L40.15-7.01Q40.15-8.47 38.89-8.47L38.89-8.47Q37.71-8.47 37.71-7.31L37.71-7.31L34.42-7.31Q34.42-8.85 35.73-9.80Q37.03-10.76 39.05-10.76Q41.07-10.76 42.25-9.78Q43.42-8.79 43.45-7.07L43.45-7.07L43.45-2.39Q43.47-0.94 43.90-0.17L43.90-0.17L43.90 0ZM38.54-2.15L38.54-2.15Q39.16-2.15 39.57-2.41Q39.97-2.68 40.15-3.01L40.15-3.01L40.15-4.70L39.19-4.70Q37.47-4.70 37.47-3.15L37.47-3.15Q37.47-2.71 37.77-2.43Q38.08-2.15 38.54-2.15ZM55.08-5.36L55.08-5.20Q55.08-2.60 54.00-1.20Q52.93 0.20 50.98 0.20L50.98 0.20Q49.37 0.20 48.38-1.08L48.38-1.08L48.24 0L45.29 0L45.29-15L48.58-15L48.58-9.72Q49.50-10.76 50.96-10.76L50.96-10.76Q52.93-10.76 54.00-9.35Q55.08-7.93 55.08-5.36L55.08-5.36ZM51.78-5.40L51.78-5.40Q51.78-6.92 51.37-7.57Q50.97-8.22 50.13-8.22L50.13-8.22Q49.01-8.22 48.58-7.37L48.58-7.37L48.58-3.17Q49.00-2.33 50.15-2.33L50.15-2.33Q51.31-2.33 51.62-3.47L51.62-3.47Q51.78-4.02 51.78-5.40ZM65.77 0L62.48 0Q62.30-0.32 62.17-0.95L62.17-0.95Q61.26 0.20 59.63 0.20L59.63 0.20Q58.13 0.20 57.09-0.71Q56.04-1.61 56.04-2.98L56.04-2.98Q56.04-4.70 57.31-5.58Q58.58-6.46 61.01-6.46L61.01-6.46L62.02-6.46L62.02-7.01Q62.02-8.47 60.76-8.47L60.76-8.47Q59.59-8.47 59.59-7.31L59.59-7.31L56.30-7.31Q56.30-8.85 57.60-9.80Q58.91-10.76 60.93-10.76Q62.95-10.76 64.12-9.78Q65.29-8.79 65.32-7.07L65.32-7.07L65.32-2.39Q65.34-0.94 65.77-0.17L65.77-0.17L65.77 0ZM60.42-2.15L60.42-2.15Q61.04-2.15 61.44-2.41Q61.85-2.68 62.02-3.01L62.02-3.01L62.02-4.70L61.06-4.70Q59.35-4.70 59.35-3.15L59.35-3.15Q59.35-2.71 59.65-2.43Q59.95-2.15 60.42-2.15ZM76.39 0L73.10 0Q72.92-0.32 72.78-0.95L72.78-0.95Q71.88 0.20 70.24 0.20L70.24 0.20Q68.75 0.20 67.71-0.71Q66.66-1.61 66.66-2.98L66.66-2.98Q66.66-4.70 67.93-5.58Q69.20-6.46 71.62-6.46L71.62-6.46L72.64-6.46L72.64-7.01Q72.64-8.47 71.38-8.47L71.38-8.47Q70.21-8.47 70.21-7.31L70.21-7.31L66.91-7.31Q66.91-8.85 68.22-9.80Q69.52-10.76 71.54-10.76Q73.56-10.76 74.74-9.78Q75.91-8.79 75.94-7.07L75.94-7.07L75.94-2.39Q75.96-0.94 76.39-0.17L76.39-0.17L76.39 0ZM71.04-2.15L71.04-2.15Q71.65-2.15 72.06-2.41Q72.46-2.68 72.64-3.01L72.64-3.01L72.64-4.70L71.68-4.70Q69.96-4.70 69.96-3.15L69.96-3.15Q69.96-2.71 70.26-2.43Q70.57-2.15 71.04-2.15ZM84.21-10.64L84.15-7.59L83.07-7.67Q81.51-7.67 81.07-6.69L81.07-6.69L81.07 0L77.78 0L77.78-10.57L80.87-10.57L80.98-9.21Q81.81-10.76 83.29-10.76L83.29-10.76Q83.82-10.76 84.21-10.64L84.21-10.64ZM88.81-10.57L88.81 0L85.51 0L85.51-10.57L88.81-10.57ZM85.31-13.29L85.31-13.29Q85.31-13.99 85.82-14.44Q86.33-14.89 87.14-14.89Q87.95-14.89 88.46-14.44Q88.96-13.99 88.96-13.29Q88.96-12.59 88.46-12.14Q87.95-11.69 87.14-11.69Q86.33-11.69 85.82-12.14Q85.31-12.59 85.31-13.29Z"></path></g></g></svg>